<?xml version="1.0" encoding="utf-8" ?>
<svg baseProfile="tiny" height="100%" version="1.2" width="100%" xmlns="http://www.w3.org/2000/svg" xmlns:ev="http://www.w3.org/2001/xml-events" xmlns:xlink="http://www.w3.org/1999/xlink"><defs /><path d="M 149,285 Z" fill="black" /><path d="M 132,283 Z" fill="black" /><path d="M 149,282 L 150,282 Z" fill="black" /><path d="M 147,282 L 146,283 L 146,285 L 146,283 Z" fill="black" /><path d="M 127,282 Z" fill="black" /><path d="M 123,282 Z" fill="black" /><path d="M 97,275 Z" fill="black" /><path d="M 85,270 Z" fill="black" /><path d="M 214,265 L 215,265 Z" fill="black" /><path d="M 211,265 Z" fill="black" /><path d="M 70,261 Z" fill="black" /><path d="M 187,257 Z" fill="black" /><path d="M 196,256 Z" fill="black" /><path d="M 227,253 Z" fill="black" /><path d="M 57,253 L 58,253 Z" fill="black" /><path d="M 215,250 Z" fill="black" /><path d="M 193,250 L 193,251 Z" fill="black" /><path d="M 220,249 Z" fill="black" /><path d="M 48,244 Z" fill="black" /><path d="M 187,242 Z" fill="black" /><path d="M 176,242 Z" fill="black" /><path d="M 179,241 Z" fill="black" /><path d="M 188,240 Z" fill="black" /><path d="M 42,236 Z" fill="black" /><path d="M 40,236 Z" fill="black" /><path d="M 218,228 Z" fill="black" /><path d="M 207,228 Z" fill="black" /><path d="M 219,226 Z" fill="black" /><path d="M 215,226 L 216,227 L 215,228 L 216,227 Z" fill="black" /><path d="M 228,224 Z" fill="black" /><path d="M 213,214 L 212,215 L 209,215 L 208,216 L 206,216 L 205,217 L 204,217 L 203,218 L 202,218 L 197,223 L 197,224 L 196,225 L 196,226 L 195,227 L 195,228 L 193,230 L 189,230 L 188,231 L 188,234 L 187,235 L 187,236 L 188,237 L 190,237 L 191,238 L 191,239 L 190,240 L 190,241 L 189,242 L 189,246 L 190,246 L 191,247 L 194,247 L 195,248 L 195,250 L 196,251 L 196,252 L 197,253 L 197,254 L 198,255 L 198,256 L 201,259 L 202,259 L 204,261 L 205,261 L 206,262 L 209,262 L 210,263 L 218,263 L 219,262 L 222,262 L 223,261 L 224,261 L 225,260 L 226,260 L 227,259 L 228,259 L 228,258 L 226,256 L 226,255 L 225,254 L 225,253 L 224,252 L 223,252 L 220,255 L 215,255 L 214,256 L 213,255 L 211,255 L 210,254 L 209,254 L 208,253 L 207,253 L 205,251 L 206,250 L 206,249 L 206,250 L 205,251 L 204,250 L 204,249 L 203,248 L 204,247 L 220,247 L 220,245 L 219,244 L 219,241 L 218,240 L 206,240 L 204,238 L 205,239 L 203,241 L 202,240 L 202,239 L 201,238 L 201,237 L 202,236 L 211,236 L 212,237 L 219,237 L 220,238 L 221,237 L 220,236 L 220,232 L 221,231 L 221,230 L 204,230 L 203,229 L 205,227 L 205,226 L 206,225 L 207,225 L 208,224 L 209,224 L 210,223 L 213,223 L 214,222 L 215,223 L 219,223 L 220,224 L 221,224 L 222,225 L 224,225 L 224,224 L 225,223 L 225,222 L 226,221 L 226,220 L 227,219 L 225,217 L 224,217 L 223,216 L 224,215 L 223,216 L 221,216 L 220,215 L 216,215 L 215,214 Z" fill="black" /><path d="M 172,214 Z" fill="black" /><path d="M 149,214 Z" fill="black" /><path d="M 162,213 L 165,213 Z" fill="black" /><path d="M 152,212 L 153,212 Z" fill="black" /><path d="M 241,210 Z" fill="black" /><path d="M 205,210 Z" fill="black" /><path d="M 23,207 L 24,207 Z" fill="black" /><path d="M 180,203 Z" fill="black" /><path d="M 257,202 Z" fill="black" /><path d="M 251,202 Z" fill="black" /><path d="M 231,202 Z" fill="black" /><path d="M 115,201 Z" fill="black" /><path d="M 154,200 Z" fill="black" /><path d="M 129,200 L 130,200 Z" fill="black" /><path d="M 122,200 Z" fill="black" /><path d="M 109,200 Z" fill="black" /><path d="M 206,198 Z" fill="black" /><path d="M 194,195 Z" fill="black" /><path d="M 223,194 Z" fill="black" /><path d="M 19,193 Z" fill="black" /><path d="M 256,192 L 257,192 Z" fill="black" /><path d="M 251,192 L 252,192 Z" fill="black" /><path d="M 85,191 Z" fill="black" /><path d="M 18,189 L 18,190 Z" fill="black" /><path d="M 223,188 Z" fill="black" /><path d="M 140,184 Z" fill="black" /><path d="M 224,183 Z" fill="black" /><path d="M 191,183 Z" fill="black" /><path d="M 261,173 Z" fill="black" /><path d="M 82,173 Z" fill="black" /><path d="M 199,167 Z" fill="black" /><path d="M 211,166 Z" fill="black" /><path d="M 128,165 Z" fill="black" /><path d="M 254,164 L 253,165 L 253,166 L 251,168 L 251,169 L 250,170 L 250,171 L 248,173 L 248,174 L 246,176 L 245,175 L 244,176 L 245,175 L 246,176 L 246,177 L 245,178 L 245,179 L 244,180 L 244,181 L 243,182 L 240,179 L 240,178 L 239,177 L 239,176 L 237,174 L 237,173 L 236,172 L 236,171 L 234,169 L 234,168 L 232,166 L 232,165 L 230,165 L 229,166 L 227,166 L 226,167 L 226,169 L 227,170 L 227,171 L 228,172 L 228,173 L 227,174 L 226,173 L 227,174 L 228,173 L 229,174 L 229,175 L 228,176 L 229,175 L 231,177 L 231,178 L 232,179 L 232,180 L 231,181 L 231,183 L 230,184 L 229,183 L 228,184 L 227,184 L 226,183 L 226,184 L 225,185 L 223,185 L 223,186 L 224,186 L 225,187 L 225,189 L 226,190 L 228,190 L 229,191 L 230,191 L 231,192 L 232,192 L 233,193 L 232,194 L 225,194 L 225,196 L 226,197 L 226,199 L 227,200 L 229,200 L 230,199 L 231,200 L 232,200 L 233,199 L 238,199 L 239,200 L 238,201 L 238,206 L 239,207 L 240,207 L 241,208 L 242,207 L 245,207 L 245,204 L 246,203 L 245,202 L 246,201 L 246,200 L 247,199 L 248,199 L 249,200 L 250,199 L 251,200 L 252,200 L 253,199 L 254,200 L 258,200 L 259,199 L 259,194 L 250,194 L 249,193 L 249,192 L 248,193 L 247,193 L 246,192 L 246,191 L 247,190 L 260,190 L 259,189 L 259,184 L 258,183 L 255,183 L 254,182 L 252,184 L 251,183 L 251,182 L 252,181 L 252,180 L 255,177 L 255,176 L 256,175 L 256,174 L 258,172 L 258,171 L 259,170 L 259,169 L 260,168 L 260,167 L 259,167 L 258,166 L 257,166 L 256,165 L 255,165 Z" fill="black" /><path d="M 199,164 L 199,165 Z" fill="black" /><path d="M 211,162 Z" fill="black" /><path d="M 199,162 Z" fill="black" /><path d="M 81,162 Z" fill="black" /><path d="M 85,161 Z" fill="black" /><path d="M 199,160 Z" fill="black" /><path d="M 211,154 Z" fill="black" /><path d="M 211,152 Z" fill="black" /><path d="M 119,150 Z" fill="black" /><path d="M 241,149 L 244,149 Z" fill="black" /><path d="M 86,148 Z" fill="black" /><path d="M 82,148 Z" fill="black" /><path d="M 211,146 Z" fill="black" /><path d="M 81,146 Z" fill="black" /><path d="M 199,145 Z" fill="black" /><path d="M 254,142 Z" fill="black" /><path d="M 228,142 Z" fill="black" /><path d="M 199,142 Z" fill="black" /><path d="M 223,140 Z" fill="black" /><path d="M 132,139 Z" fill="black" /><path d="M 225,138 Z" fill="black" /><path d="M 223,136 Z" fill="black" /><path d="M 205,135 L 205,137 L 206,138 L 206,137 L 205,136 Z" fill="black" /><path d="M 144,135 Z" fill="black" /><path d="M 225,132 Z" fill="black" /><path d="M 232,130 L 233,130 Z" fill="black" /><path d="M 236,128 Z" fill="black" /><path d="M 224,127 Z" fill="black" /><path d="M 123,127 Z" fill="black" /><path d="M 87,126 Z" fill="black" /><path d="M 16,126 Z" fill="black" /><path d="M 83,125 L 83,126 Z" fill="black" /><path d="M 233,124 L 234,125 Z" fill="black" /><path d="M 231,124 Z" fill="black" /><path d="M 174,124 Z" fill="black" /><path d="M 17,124 Z" fill="black" /><path d="M 257,122 Z" fill="black" /><path d="M 257,120 Z" fill="black" /><path d="M 246,114 Z" fill="black" /><path d="M 241,114 Z" fill="black" /><path d="M 225,114 Z" fill="black" /><path d="M 243,110 Z" fill="black" /><path d="M 239,110 Z" fill="black" /><path d="M 111,110 Z" fill="black" /><path d="M 186,109 Z" fill="black" /><path d="M 144,109 Z" fill="black" /><path d="M 142,109 Z" fill="black" /><path d="M 139,109 Z" fill="black" /><path d="M 113,109 Z" fill="black" /><path d="M 128,108 L 129,108 Z" fill="black" /><path d="M 126,108 Z" fill="black" /><path d="M 120,107 L 121,107 Z" fill="black" /><path d="M 224,103 Z" fill="black" /><path d="M 198,98 Z" fill="black" /><path d="M 149,97 Z" fill="black" /><path d="M 147,97 Z" fill="black" /><path d="M 240,94 L 239,95 L 238,95 L 238,97 L 236,99 L 237,100 L 236,101 L 235,101 L 234,102 L 232,102 L 229,105 L 229,106 L 228,107 L 228,108 L 227,109 L 227,116 L 228,117 L 228,118 L 232,122 L 234,122 L 235,123 L 236,123 L 237,124 L 240,124 L 241,125 L 244,125 L 245,126 L 246,126 L 249,129 L 248,130 L 247,130 L 248,131 L 247,132 L 247,133 L 246,134 L 237,134 L 236,133 L 233,133 L 232,132 L 231,132 L 230,131 L 228,131 L 228,133 L 227,134 L 227,138 L 228,139 L 230,139 L 231,140 L 232,140 L 233,141 L 237,141 L 239,143 L 239,145 L 238,146 L 239,147 L 239,148 L 240,147 L 244,147 L 245,146 L 246,146 L 246,144 L 245,143 L 247,141 L 249,141 L 250,140 L 251,140 L 252,141 L 251,140 L 252,139 L 253,139 L 255,137 L 255,136 L 256,135 L 256,134 L 257,133 L 257,126 L 256,125 L 256,124 L 255,123 L 255,122 L 254,121 L 254,120 L 253,120 L 252,119 L 250,119 L 249,118 L 247,118 L 246,117 L 241,117 L 240,116 L 238,116 L 235,113 L 235,111 L 238,108 L 247,108 L 248,109 L 250,109 L 252,111 L 254,111 L 256,109 L 255,108 L 255,103 L 254,103 L 253,102 L 251,102 L 250,101 L 248,101 L 247,100 L 246,100 L 245,99 L 245,98 L 246,97 L 247,98 L 245,96 L 246,95 L 244,95 L 243,94 Z" fill="black" /><path d="M 186,89 Z" fill="black" /><path d="M 226,85 Z" fill="black" /><path d="M 191,81 Z" fill="black" /><path d="M 200,79 L 199,80 L 197,80 L 196,81 L 195,80 L 196,81 L 191,86 L 191,87 L 179,99 L 179,100 L 177,102 L 176,101 L 177,102 L 172,107 L 171,106 L 172,107 L 171,108 L 171,109 L 169,111 L 168,111 L 168,112 L 165,115 L 164,114 L 165,115 L 164,116 L 164,117 L 162,119 L 161,119 L 161,120 L 156,125 L 155,124 L 156,125 L 154,127 L 153,127 L 153,128 L 152,129 L 152,130 L 142,140 L 141,139 L 138,139 L 137,138 L 138,139 L 137,140 L 134,140 L 133,141 L 131,141 L 129,139 L 128,139 L 127,138 L 127,137 L 126,137 L 124,135 L 125,134 L 124,135 L 122,133 L 121,133 L 116,128 L 117,127 L 116,128 L 115,127 L 114,127 L 109,122 L 110,121 L 109,122 L 108,122 L 101,115 L 100,115 L 98,113 L 97,114 L 95,114 L 93,116 L 92,115 L 91,116 L 92,117 L 91,118 L 91,120 L 98,127 L 99,127 L 104,132 L 103,133 L 104,132 L 105,133 L 106,133 L 113,140 L 111,142 L 113,140 L 114,141 L 115,141 L 119,145 L 120,145 L 122,147 L 123,147 L 124,148 L 124,149 L 125,150 L 125,157 L 126,158 L 126,159 L 127,160 L 127,161 L 131,165 L 131,166 L 132,165 L 133,166 L 135,166 L 136,167 L 142,167 L 143,166 L 145,166 L 146,165 L 147,165 L 148,166 L 147,165 L 149,163 L 149,162 L 151,160 L 151,159 L 152,158 L 152,156 L 153,155 L 153,151 L 154,150 L 153,151 L 152,150 L 152,147 L 151,146 L 151,145 L 155,141 L 156,142 L 155,141 L 156,140 L 156,139 L 162,133 L 163,134 L 162,133 L 165,130 L 165,129 L 173,121 L 173,120 L 174,119 L 175,119 L 178,116 L 178,115 L 183,110 L 183,109 L 189,103 L 190,104 L 189,103 L 190,102 L 190,101 L 192,99 L 193,100 L 192,99 L 196,95 L 197,96 L 196,95 L 197,94 L 198,94 L 198,92 L 201,89 L 201,88 L 204,85 L 204,84 L 202,82 L 203,81 L 202,82 L 200,80 Z" fill="black" /><path d="M 188,77 L 187,78 Z" fill="black" /><path d="M 176,74 Z" fill="black" /><path d="M 39,73 Z" fill="black" /><path d="M 167,70 Z" fill="black" /><path d="M 205,66 Z" fill="black" /><path d="M 167,62 Z" fill="black" /><path d="M 157,53 L 157,54 Z" fill="black" /><path d="M 64,52 Z" fill="black" /><path d="M 177,50 Z" fill="black" /><path d="M 211,49 Z" fill="black" /><path d="M 208,47 Z" fill="black" /><path d="M 147,46 L 148,46 Z" fill="black" /><path d="M 79,42 Z" fill="black" /><path d="M 179,33 Z" fill="black" /><path d="M 102,32 Z" fill="black" /><path d="M 172,31 Z" fill="black" /><path d="M 105,31 L 106,31 Z" fill="black" /><path d="M 98,31 Z" fill="black" /><path d="M 134,28 L 133,29 L 123,29 L 122,30 L 116,30 L 115,31 L 111,31 L 110,32 L 108,32 L 107,33 L 104,33 L 103,34 L 101,34 L 100,35 L 98,35 L 97,36 L 96,36 L 95,37 L 93,37 L 92,38 L 90,38 L 88,40 L 86,40 L 84,42 L 83,42 L 82,43 L 81,43 L 80,44 L 79,44 L 78,45 L 77,45 L 76,46 L 75,46 L 72,49 L 71,49 L 69,51 L 68,51 L 65,54 L 64,54 L 58,60 L 57,60 L 53,64 L 52,63 L 49,66 L 50,67 L 49,68 L 49,69 L 42,76 L 42,77 L 38,81 L 38,82 L 36,84 L 36,85 L 34,87 L 34,88 L 33,89 L 33,90 L 31,92 L 31,93 L 30,94 L 30,95 L 29,96 L 29,97 L 28,98 L 28,99 L 27,100 L 27,101 L 26,102 L 26,104 L 25,105 L 25,106 L 24,107 L 24,108 L 23,109 L 23,111 L 22,112 L 21,111 L 20,112 L 21,111 L 22,112 L 22,114 L 21,115 L 21,117 L 20,118 L 20,121 L 19,122 L 19,125 L 18,126 L 18,129 L 17,130 L 17,136 L 16,137 L 16,147 L 15,148 L 15,162 L 16,163 L 16,172 L 15,173 L 16,172 L 17,173 L 17,178 L 18,179 L 18,182 L 19,183 L 19,187 L 20,188 L 20,190 L 21,191 L 21,194 L 22,195 L 22,197 L 23,198 L 23,200 L 24,201 L 24,202 L 25,203 L 25,204 L 26,205 L 26,207 L 27,208 L 27,209 L 28,210 L 28,211 L 27,212 L 27,213 L 27,212 L 28,211 L 29,212 L 29,213 L 30,214 L 30,215 L 32,217 L 32,218 L 33,219 L 33,220 L 35,222 L 35,223 L 36,224 L 36,225 L 39,228 L 39,229 L 42,232 L 42,233 L 49,240 L 49,241 L 53,245 L 52,246 L 53,245 L 55,247 L 56,247 L 62,253 L 61,254 L 62,253 L 63,254 L 64,254 L 67,257 L 68,257 L 70,259 L 71,259 L 73,261 L 74,261 L 76,263 L 77,263 L 79,265 L 79,266 L 80,267 L 81,266 L 82,266 L 83,267 L 82,268 L 83,267 L 84,267 L 85,268 L 86,268 L 87,269 L 88,269 L 89,270 L 90,270 L 91,271 L 93,271 L 94,272 L 95,272 L 96,273 L 95,274 L 93,274 L 95,274 L 96,273 L 98,273 L 99,274 L 101,274 L 102,275 L 103,275 L 104,276 L 106,276 L 107,277 L 111,277 L 112,278 L 114,278 L 115,279 L 121,279 L 122,280 L 130,280 L 131,281 L 144,281 L 145,280 L 153,280 L 154,279 L 159,279 L 160,278 L 163,278 L 164,277 L 167,277 L 168,276 L 171,276 L 172,275 L 174,275 L 175,274 L 177,274 L 178,273 L 179,273 L 180,272 L 181,272 L 182,273 L 181,272 L 182,271 L 183,271 L 184,270 L 185,270 L 186,269 L 187,269 L 188,268 L 189,268 L 189,266 L 187,264 L 187,263 L 184,260 L 184,259 L 182,259 L 181,260 L 180,260 L 179,261 L 178,261 L 177,262 L 176,262 L 175,263 L 173,263 L 172,264 L 170,264 L 169,263 L 169,262 L 170,261 L 171,261 L 174,258 L 175,258 L 175,257 L 179,253 L 179,252 L 180,251 L 180,250 L 181,249 L 180,248 L 180,246 L 178,246 L 176,244 L 175,244 L 175,245 L 171,249 L 171,250 L 168,253 L 167,253 L 161,259 L 160,259 L 158,261 L 157,261 L 155,263 L 154,263 L 153,264 L 152,264 L 151,265 L 149,265 L 148,266 L 146,266 L 145,267 L 144,266 L 144,265 L 143,264 L 144,263 L 144,262 L 143,261 L 143,247 L 144,246 L 143,245 L 143,239 L 144,238 L 143,237 L 143,232 L 144,231 L 144,230 L 143,229 L 143,224 L 144,223 L 144,222 L 143,221 L 144,220 L 143,219 L 143,216 L 144,215 L 144,212 L 143,211 L 144,210 L 159,210 L 160,211 L 169,211 L 170,212 L 176,212 L 177,213 L 181,213 L 182,214 L 186,214 L 187,215 L 196,215 L 197,214 L 198,214 L 198,213 L 199,212 L 199,211 L 200,210 L 200,208 L 201,207 L 201,206 L 202,205 L 202,203 L 203,202 L 203,199 L 204,198 L 204,196 L 205,195 L 205,191 L 206,190 L 206,187 L 207,186 L 207,180 L 209,178 L 208,177 L 208,169 L 209,168 L 209,141 L 208,140 L 204,140 L 203,139 L 201,139 L 200,140 L 201,140 L 202,141 L 201,142 L 201,170 L 200,171 L 200,178 L 199,179 L 199,184 L 198,185 L 198,189 L 197,190 L 197,193 L 196,194 L 196,197 L 195,198 L 195,199 L 194,200 L 194,203 L 193,204 L 193,205 L 191,207 L 190,207 L 189,206 L 185,206 L 184,205 L 178,205 L 177,204 L 171,204 L 170,203 L 162,203 L 161,202 L 146,202 L 144,200 L 144,196 L 143,195 L 143,194 L 144,193 L 144,190 L 143,189 L 143,187 L 137,187 L 136,186 L 136,187 L 135,188 L 136,189 L 135,190 L 135,199 L 136,200 L 134,202 L 123,202 L 122,203 L 113,203 L 112,204 L 106,204 L 105,205 L 101,205 L 100,206 L 95,206 L 94,207 L 91,207 L 90,208 L 88,208 L 87,207 L 87,205 L 86,204 L 86,202 L 85,201 L 85,198 L 84,197 L 84,195 L 83,194 L 83,190 L 82,189 L 82,184 L 81,183 L 81,179 L 80,178 L 80,171 L 79,170 L 79,159 L 80,158 L 83,158 L 84,159 L 85,159 L 86,158 L 87,159 L 88,159 L 89,158 L 90,159 L 91,159 L 92,158 L 93,159 L 94,159 L 95,158 L 98,158 L 100,156 L 100,155 L 101,154 L 100,154 L 99,153 L 99,151 L 98,150 L 80,150 L 79,149 L 79,137 L 80,136 L 80,128 L 81,127 L 81,122 L 82,121 L 82,118 L 83,117 L 84,117 L 83,116 L 83,112 L 84,111 L 84,109 L 85,108 L 85,106 L 86,105 L 86,103 L 87,102 L 87,101 L 88,100 L 91,100 L 92,101 L 96,101 L 97,102 L 100,102 L 101,103 L 107,103 L 108,104 L 115,104 L 116,105 L 124,105 L 125,106 L 135,106 L 136,107 L 150,107 L 151,106 L 151,100 L 150,99 L 144,99 L 143,98 L 144,97 L 144,92 L 143,91 L 143,48 L 144,47 L 144,44 L 145,43 L 147,43 L 148,44 L 150,44 L 151,45 L 152,45 L 155,48 L 156,48 L 158,50 L 159,50 L 168,59 L 167,60 L 168,59 L 171,62 L 171,63 L 174,66 L 174,67 L 175,68 L 175,69 L 176,70 L 176,71 L 175,72 L 176,71 L 178,73 L 178,74 L 179,75 L 179,76 L 180,76 L 181,77 L 180,78 L 181,77 L 182,78 L 187,73 L 186,72 L 186,71 L 185,70 L 185,69 L 184,68 L 184,67 L 185,66 L 184,67 L 182,65 L 182,64 L 181,63 L 181,62 L 179,60 L 179,59 L 176,56 L 176,55 L 168,47 L 167,47 L 166,46 L 167,45 L 169,45 L 170,46 L 171,46 L 172,47 L 175,47 L 176,48 L 178,48 L 179,49 L 180,49 L 181,50 L 183,50 L 185,52 L 186,52 L 187,53 L 189,53 L 190,54 L 191,54 L 192,55 L 193,55 L 195,57 L 196,57 L 198,59 L 198,61 L 198,60 L 199,59 L 201,61 L 202,61 L 205,64 L 206,64 L 213,71 L 214,71 L 218,75 L 218,76 L 219,77 L 219,78 L 220,78 L 224,82 L 227,79 L 228,79 L 229,78 L 230,78 L 231,77 L 232,77 L 233,76 L 234,76 L 234,75 L 233,74 L 233,73 L 230,70 L 230,69 L 223,62 L 222,62 L 221,61 L 221,60 L 220,60 L 215,55 L 214,55 L 211,52 L 211,51 L 209,51 L 207,49 L 206,49 L 205,48 L 204,48 L 202,46 L 201,46 L 199,44 L 198,44 L 197,43 L 196,43 L 195,42 L 194,42 L 193,41 L 192,41 L 191,40 L 192,39 L 191,40 L 190,40 L 189,39 L 188,39 L 187,38 L 186,38 L 185,37 L 183,37 L 182,36 L 180,36 L 179,35 L 177,35 L 176,34 L 174,34 L 173,33 L 171,33 L 170,32 L 166,32 L 165,31 L 161,31 L 160,30 L 155,30 L 154,29 L 145,29 L 144,28 L 139,28 L 138,29 L 137,29 L 136,28 L 135,29 Z" fill="black" /><path d="M 119,28 Z" fill="black" /><path d="M 150,27 Z" fill="black" /><path d="M 148,27 Z" fill="black" /><path d="M 145,26 Z" fill="black" /></svg>